<svg width="110" height="90" viewBox="0 0 110 90" fill="none" xmlns="http://www.w3.org/2000/svg">
<path d="M0 76.5V89.25H110V76.5H0ZM104.5 70.125C103.015 44.1787 86.625 22.95 65.12 17.7862C65.67 16.2562 66 14.535 66 12.75C66 5.7375 61.05 0 55 0C48.95 0 44 5.7375 44 12.75C44 14.535 44.33 16.2562 44.88 17.7862C23.375 22.95 6.985 44.1787 5.5 70.125H104.5ZM55 29.1975C71.225 29.1975 85.085 40.8637 90.75 57.3112H19.25C24.915 40.8637 38.775 29.1975 55 29.1975Z" fill="#C9A66B"/>
<path d="M0 76.5V89.25H110V76.5H0ZM104.5 70.125C103.015 44.1787 86.625 22.95 65.12 17.7862C65.67 16.2562 66 14.535 66 12.75C66 5.7375 61.05 0 55 0C48.95 0 44 5.7375 44 12.75C44 14.535 44.33 16.2562 44.88 17.7862C23.375 22.95 6.985 44.1787 5.5 70.125H104.5ZM55 29.1975C71.225 29.1975 85.085 40.8637 90.75 57.3112H19.25C24.915 40.8637 38.775 29.1975 55 29.1975Z" fill="black" fill-opacity="0.2"/>
</svg>
